<svg width="900" height="1100" viewBox="0 0 900 1100" fill="none" xmlns="http://www.w3.org/2000/svg">
  <defs>
    <linearGradient id="bg" x1="0" y1="0" x2="900" y2="1100" gradientUnits="userSpaceOnUse">
      <stop stop-color="#f7f0e5"/>
      <stop offset="1" stop-color="#dcb980"/>
    </linearGradient>
    <linearGradient id="silk" x1="0" y1="0" x2="1" y2="1">
      <stop stop-color="#7e1f2d"/>
      <stop offset="1" stop-color="#b77b38"/>
    </linearGradient>
  </defs>
  <rect width="900" height="1100" rx="34" fill="url(#bg)"/>
  <circle cx="450" cy="340" r="220" fill="#f4e2c4" opacity="0.8"/>

  <g opacity="0.95">
    <ellipse cx="360" cy="360" rx="74" ry="88" fill="#d39f67"/>
    <ellipse cx="540" cy="360" rx="74" ry="88" fill="#cc9458"/>
    <path d="M260 760 C290 560, 410 520, 470 560 C530 600, 610 660, 650 820 L260 820 Z" fill="url(#silk)"/>
    <path d="M220 840 C330 760, 570 760, 700 860 L700 1010 L220 1010 Z" fill="#7c1e2b"/>
    <path d="M250 820 C350 780, 560 780, 660 830" stroke="#d8b36c" stroke-width="10" stroke-linecap="round"/>
  </g>

  <g fill="#d9af63" opacity="0.9">
    <circle cx="300" cy="275" r="12"/>
    <circle cx="600" cy="285" r="12"/>
    <circle cx="450" cy="230" r="16"/>
    <rect x="432" y="250" width="36" height="110" rx="18"/>
  </g>
</svg>
