<svg width="1400" height="220" viewBox="0 0 1400 220" fill="none" xmlns="http://www.w3.org/2000/svg">
  <defs>
    <linearGradient id="stem" x1="0" y1="0" x2="1400" y2="0" gradientUnits="userSpaceOnUse">
      <stop stop-color="#a5682c"/>
      <stop offset="0.5" stop-color="#d7af64"/>
      <stop offset="1" stop-color="#a5682c"/>
    </linearGradient>
  </defs>
  <path d="M20 110 C240 30, 420 190, 700 110 C980 30, 1160 190, 1380 110" stroke="url(#stem)" stroke-width="6"/>
  <g fill="#f8f2e8" stroke="#b98541" stroke-width="4">
    <circle cx="120" cy="95" r="22"/>
    <circle cx="260" cy="130" r="18"/>
    <circle cx="430" cy="90" r="20"/>
    <circle cx="620" cy="132" r="19"/>
    <circle cx="780" cy="88" r="20"/>
    <circle cx="960" cy="126" r="18"/>
    <circle cx="1140" cy="92" r="22"/>
    <circle cx="1280" cy="126" r="18"/>
  </g>
  <g fill="#7c1e2b" opacity="0.85">
    <ellipse cx="190" cy="70" rx="10" ry="18"/>
    <ellipse cx="540" cy="70" rx="10" ry="18"/>
    <ellipse cx="860" cy="70" rx="10" ry="18"/>
    <ellipse cx="1210" cy="70" rx="10" ry="18"/>
  </g>
</svg>
