<svg width="1600" height="1000" viewBox="0 0 1600 1000" fill="none" xmlns="http://www.w3.org/2000/svg">
  <defs>
    <linearGradient id="bg" x1="0" y1="0" x2="1600" y2="1000" gradientUnits="userSpaceOnUse">
      <stop stop-color="#f8f1e6"/>
      <stop offset="0.45" stop-color="#efe0c7"/>
      <stop offset="1" stop-color="#d5b27a"/>
    </linearGradient>
    <radialGradient id="glow" cx="0" cy="0" r="1" gradientUnits="userSpaceOnUse" gradientTransform="translate(800 420) rotate(90) scale(340 620)">
      <stop stop-color="#fff7e8" stop-opacity="0.9"/>
      <stop offset="1" stop-color="#fff7e8" stop-opacity="0"/>
    </radialGradient>
    <filter id="soft" x="-20%" y="-20%" width="140%" height="140%">
      <feGaussianBlur stdDeviation="6"/>
    </filter>
  </defs>
  <rect width="1600" height="1000" fill="url(#bg)"/>
  <rect width="1600" height="1000" fill="url(#glow)"/>

  <g opacity="0.45" stroke="#9f6a2f" stroke-width="5" fill="none">
    <path d="M280 740 L520 380 L800 740 L1080 380 L1320 740"/>
    <path d="M360 740 L560 460 L800 740 L1040 460 L1240 740" opacity="0.55"/>
  </g>

  <g fill="#b98945" opacity="0.4">
    <rect x="255" y="740" width="48" height="170" rx="8"/>
    <rect x="495" y="740" width="48" height="170" rx="8"/>
    <rect x="775" y="740" width="48" height="170" rx="8"/>
    <rect x="1055" y="740" width="48" height="170" rx="8"/>
    <rect x="1295" y="740" width="48" height="170" rx="8"/>
  </g>

  <g filter="url(#soft)" opacity="0.35">
    <circle cx="450" cy="270" r="10" fill="#fff2cc"/>
    <circle cx="1160" cy="290" r="12" fill="#fff2cc"/>
    <circle cx="825" cy="190" r="14" fill="#fff2cc"/>
  </g>

  <g fill="#8f2f2f" opacity="0.2">
    <circle cx="120" cy="160" r="56"/>
    <circle cx="1490" cy="820" r="70"/>
    <circle cx="1410" cy="170" r="40"/>
  </g>
</svg>
